<?xml version="1.0" encoding="utf-8" ?>
<svg xmlns="http://www.w3.org/2000/svg" xmlns:xlink="http://www.w3.org/1999/xlink" width="1024" height="1024">
	<defs>
		<linearGradient id="gradient_0" gradientUnits="userSpaceOnUse" x1="185.06535" y1="387.95938" x2="326.52548" y2="123.49038">
			<stop offset="0" stop-color="#0579F2"/>
			<stop offset="1" stop-color="#4BD6FF"/>
		</linearGradient>
	</defs>
	<path fill="url(#gradient_0)" transform="scale(2 2)" d="M198.477 117.087C211.398 115.721 217.076 123.696 225.413 131.78C235.615 141.671 245.919 151.545 255.652 161.899C265.22 154.172 278.344 139.653 287.606 130.657C296.997 121.537 306.354 111.363 320.999 119.97C326.414 123.152 332.317 130.384 336.928 135.027L424.132 221.635C435.125 232.836 458.483 248.099 447.885 265.455C444.923 270.305 440.056 273.639 436.09 277.615L331.866 381.691C325.646 387.972 322.751 391.876 313.689 394.034C302.55 396.29 295.591 388.643 288.537 381.619L268.903 361.998C264.69 357.773 260.541 352.983 255.652 349.556C246.482 356.716 233.124 371.224 224.576 379.863C218.748 385.752 213.502 393.029 204.643 394.144C192.758 395.639 186.719 388.921 179.159 381.324L109.225 312.778C99.5618 303.367 90.0663 293.717 80.6703 284.04C76.0429 279.275 70.7127 274.864 66.5506 269.7C52.4083 252.152 70.1876 238.233 81.3118 226.972L179.179 129.7C185.046 123.869 189.754 118.101 198.477 117.087ZM201.692 135.483L110.169 226.858C102.121 235.048 87.2705 247.777 80.7302 256.14C88.8498 263.294 96.2668 271.048 103.952 278.646L201.692 374.842C207.942 368.801 213.969 362.545 220.167 356.455L311.537 266.425C314.97 263.026 319.33 257.837 323.363 255.401C319.586 250.421 314.577 246.288 310.508 241.51L308.973 243.13C302.652 249.755 295.953 256.002 289.488 262.484L231.53 319.825C224.049 327.187 209.282 344.034 201.692 349.556C196.901 345.631 192.585 340.588 188.153 336.226L122.385 271.092C117.635 266.415 111.061 260.466 107.062 255.401C114.787 246.852 125.015 238.086 133.317 229.725L192.289 170.426C195.366 167.299 198.733 163.346 202.504 161.074C210.888 168.61 222.77 180.114 229.966 188.449C234.249 184.573 238.205 180.155 242.299 176.06C233.561 166.981 224.433 158.337 215.579 149.384C212.258 146.025 205.077 137.78 201.692 135.483ZM310.508 136.249C305.319 139.791 301.308 144.82 296.888 149.225L201.84 243.281C197.751 247.374 192.913 251.477 189.503 256.14C193.364 260.334 197.813 263.967 201.692 268.152C205.339 266.214 216.993 253.971 220.586 250.434L282.98 188.112C287.913 183.195 305.213 164.965 310.508 161.899C314.569 165.404 318.279 169.432 322.064 173.232L400.542 251.879C401.699 253.013 403.124 254.139 404.122 255.401C400.741 260.245 393.955 266.253 389.606 270.569L364.916 295.168L316.838 343.656C314.88 345.599 312.817 348.08 310.508 349.556L291.636 330.606C288.877 327.78 285.837 325.029 283.326 321.989C279.388 326.716 274.522 330.845 270.743 335.555C279.189 343.934 287.34 352.591 295.854 360.908C300.664 365.606 306.017 369.839 310.508 374.842C313.627 372.173 316.367 369.065 319.237 366.135L420.591 265.551C423.681 262.439 426.883 259.389 429.824 256.14C417.749 242.253 403.931 229.586 390.864 216.655L318.179 144.073C315.625 141.503 312.871 138.988 310.508 136.249ZM202.504 188.449C199.69 190.649 197.223 193.529 194.709 196.072L154.408 236.424C148.088 242.779 141.92 249.572 135.109 255.401C138.649 259.605 142.754 263.341 146.7 267.158L186.21 305.992C191.166 310.912 197.388 316.625 201.692 321.989C209.731 315.269 219.754 303.57 227.5 295.833L301.63 222.341C304.297 219.671 307.004 216.516 310.079 214.344C322.627 225.602 338.945 242.88 350.695 255.303C349.544 258.236 342.262 264.385 339.61 267.02L313.513 293.17C308.329 298.283 302.113 303.412 297.645 309.122C301.962 313.202 306.692 317.455 310.508 321.989C325.553 306.287 341.123 291.208 356.535 275.874L368.364 264.083C371.115 261.333 374.208 258.646 376.368 255.401C354.355 234.483 331.612 211.158 310.508 189.304C307.523 191.047 304.953 194.065 302.479 196.477L225.64 272.242C219.314 278.504 207.998 291.613 201.692 296.043C198.92 293.702 196.417 291.051 193.867 288.475L180.102 274.315C173.932 267.96 167.364 261.907 161.363 255.401C176.705 237.416 199.146 219.37 216.022 201.361C212.729 198.738 204.515 189.532 202.504 188.449Z"/>
</svg>
